<svg width="62" height="16" fill="none" xmlns="http://www.w3.org/2000/svg"><path d="M52.23 16h4.443V3.75h4.418V0H47.785v3.75h4.444V16ZM37.578 7.339V3.453h2.55c1.641 0 2.438.664 2.438 1.943s-.784 1.943-2.438 1.943h-2.55ZM33.135 16h4.444v-5.213h2.642c3.987 0 6.655-1.689 6.655-5.391S44.208 0 40.22 0h-7.086v16Zm-15.268 0h12.1v-3.588H22.31v-2.72h7.586V6.265H22.31V3.589h7.656V0h-12.1v16ZM4.444 12.276V3.728h1.414c3.121 0 5.023 1.096 5.023 4.274s-1.915 4.274-5.036 4.274H4.444ZM0 16h5.81c5.493 0 9.48-2.183 9.48-7.998S11.316 0 5.81 0H0v16Z" fill="#121212"/></svg>