<svg width="62" height="16" viewBox="0 0 62 16" fill="none" xmlns="http://www.w3.org/2000/svg">
<path d="M52.2293 16H56.6732V3.75007H61.0909V0H47.7855V3.75007H52.2293V16ZM37.579 7.33861V3.45321H40.1295C41.7704 3.45321 42.5669 4.11678 42.5669 5.39591C42.5669 6.67503 41.7835 7.33861 40.1295 7.33861H37.579ZM33.1352 16H37.579V10.7874H40.2209C44.2078 10.7874 46.8758 9.09795 46.8758 5.39591C46.8758 1.69386 44.2078 0 40.2209 0H33.1352V16ZM17.8668 16H29.9666V12.4115H22.3106V9.69168H29.8969V6.26467H22.3106V3.58854H29.9666V0H17.8668V16ZM4.44385 12.2761V3.72824H5.85839C8.97909 3.72824 10.8811 4.82401 10.8811 8.00218C10.8811 11.1804 8.96604 12.2761 5.84533 12.2761H4.44385ZM0 16H5.81051C11.3033 16 15.2901 13.8172 15.2901 8.00218C15.2901 2.18718 11.3164 0 5.81051 0H0V16Z" fill="#121212"/>
</svg>
