<svg width="18" height="18" fill="none" xmlns="http://www.w3.org/2000/svg"><path fill-rule="evenodd" clip-rule="evenodd" d="M9 .375A9.032 9.032 0 0 0 3.17 2.51 8.938 8.938 0 0 0 .12 7.892a8.908 8.908 0 0 0 1.182 6.064 8.992 8.992 0 0 0 4.852 3.859c.447.083.615-.194.615-.43s-.009-.919-.012-1.666c-2.503.541-3.032-1.056-3.032-1.056-.409-1.037-.999-1.31-.999-1.31-.817-.554.061-.544.061-.544.905.064 1.38.923 1.38.923.802 1.368 2.106.972 2.619.741.08-.58.314-.973.572-1.197-2-.225-4.101-.993-4.101-4.422-.013-.89.319-1.75.927-2.402-.093-.225-.401-1.135.087-2.37 0 0 .756-.241 2.476.916a8.59 8.59 0 0 1 4.507 0c1.718-1.157 2.472-.917 2.472-.917.49 1.233.182 2.143.09 2.371.609.653.941 1.514.928 2.405 0 3.436-2.106 4.194-4.109 4.414.322.279.61.823.61 1.659 0 1.197-.01 2.16-.01 2.455 0 .239.162.517.618.43a8.992 8.992 0 0 0 4.852-3.86 8.908 8.908 0 0 0 1.182-6.065 8.938 8.938 0 0 0-3.053-5.382A9.032 9.032 0 0 0 9.005.375H9Z" fill="#fff"/></svg>