<svg width="18" height="18" fill="none" xmlns="http://www.w3.org/2000/svg"><path fill-rule="evenodd" clip-rule="evenodd" d="M9 1.622c-2.403 0-2.688.009-3.637.052-.877.04-1.354.187-1.67.31-.392.144-.745.374-1.036.673-.299.29-.529.644-.673 1.035-.123.317-.27.794-.31 1.671-.043.95-.052 1.234-.052 3.637s.009 2.688.052 3.637c.04.877.187 1.354.31 1.671a2.981 2.981 0 0 0 1.708 1.708c.317.124.794.27 1.671.31.95.043 1.234.053 3.637.053s2.688-.01 3.637-.053c.877-.04 1.354-.187 1.671-.31a2.787 2.787 0 0 0 1.035-.673c.299-.29.529-.644.673-1.035.123-.317.27-.793.31-1.671.043-.949.052-1.234.052-3.637s-.009-2.688-.052-3.637c-.04-.877-.187-1.354-.31-1.67a2.79 2.79 0 0 0-.673-1.036 2.788 2.788 0 0 0-1.035-.673c-.317-.123-.794-.27-1.671-.31-.95-.043-1.234-.052-3.637-.052ZM9 0c2.444 0 2.75.01 3.71.054.959.044 1.613.196 2.185.419.6.225 1.145.58 1.594 1.038.458.45.813.993 1.039 1.594.222.572.374 1.226.418 2.184C17.99 6.25 18 6.556 18 9s-.01 2.75-.054 3.71c-.044.959-.196 1.613-.419 2.185-.226.6-.58 1.145-1.038 1.594-.45.458-.993.813-1.594 1.038-.572.223-1.226.375-2.184.419C11.75 17.99 11.444 18 9 18s-2.75-.01-3.71-.054c-.959-.044-1.613-.196-2.185-.419a4.601 4.601 0 0 1-2.632-2.632C.25 14.323.098 13.67.054 12.711.01 11.75 0 11.444 0 9s.01-2.75.054-3.71C.098 4.33.25 3.676.473 3.104c.225-.6.58-1.145 1.038-1.594.45-.458.993-.813 1.594-1.039C3.677.25 4.33.098 5.289.054 6.25.01 6.556 0 9 0ZM9 4.379a4.621 4.621 0 1 1 0 9.243 4.621 4.621 0 0 1 0-9.243Zm0 7.622a3 3 0 1 0 0-6.002 3 3 0 0 0 0 6.002ZM3.116 4.195a1.08 1.08 0 1 0 2.16 0 1.08 1.08 0 0 0-2.16 0Z" fill="#fff"/></svg>