<svg width="18" height="15" fill="none" xmlns="http://www.w3.org/2000/svg"><path d="M5.66 14.629c6.794 0 10.508-5.628 10.508-10.508 0-.16-.003-.319-.01-.477A7.51 7.51 0 0 0 18 1.732a7.364 7.364 0 0 1-2.12.581A3.706 3.706 0 0 0 17.502.27a7.405 7.405 0 0 1-2.345.897 3.694 3.694 0 0 0-6.293 3.368A10.485 10.485 0 0 1 1.253.676a3.69 3.69 0 0 0 1.143 4.93 3.666 3.666 0 0 1-1.673-.462v.048a3.694 3.694 0 0 0 2.963 3.62 3.698 3.698 0 0 1-1.668.063 3.697 3.697 0 0 0 3.45 2.565A7.409 7.409 0 0 1 .88 13.021c-.298 0-.592-.017-.881-.051a10.453 10.453 0 0 0 5.661 1.659" fill="#fff"/></svg>